<svg width="17" height="17" viewBox="0 0 17 17" fill="none" xmlns="http://www.w3.org/2000/svg">
<path d="M6.70531 2.83C6.70531 2.83 4.69964 2.96781 3.38796 4.02109C3.38181 4.02356 3.37443 4.02725 3.36828 4.03094C3.14064 4.24135 2.9696 4.56742 2.75796 5.035C2.54632 5.50258 2.32238 6.10428 2.11812 6.77735C1.71083 8.12471 1.37984 9.77846 1.37984 11.335C1.37861 11.3904 1.39214 11.4445 1.41921 11.4925C1.87941 12.3009 2.72597 12.7894 3.51593 13.097C4.30589 13.4047 5.03556 13.5277 5.40593 13.54C5.51052 13.5437 5.61019 13.4957 5.67171 13.412L6.43953 12.3489C7.05845 12.4953 7.78443 12.595 8.62484 12.595C9.46525 12.595 10.1912 12.4953 10.8102 12.3489L11.578 13.412C11.6395 13.4957 11.7392 13.5437 11.8437 13.54C12.2141 13.5277 12.9438 13.4047 13.7337 13.097C14.5237 12.7894 15.3703 12.3009 15.8305 11.4925C15.8575 11.4445 15.8711 11.3904 15.8698 11.335C15.8698 9.77846 15.5388 8.12471 15.1316 6.77735C14.9273 6.10428 14.7034 5.50258 14.4917 5.035C14.2801 4.56742 14.109 4.24135 13.8814 4.03094C13.8752 4.02725 13.8679 4.02356 13.8617 4.02109C12.55 2.96781 10.5444 2.83 10.5444 2.83C10.521 2.82754 10.4988 2.82754 10.4755 2.83C10.366 2.84477 10.2737 2.91613 10.2294 3.01703C10.2294 3.01703 10.1223 3.25205 10.0522 3.58797C9.43818 3.48953 8.92138 3.46 8.62484 3.46C8.32829 3.46 7.8115 3.48953 7.19749 3.58797C7.12736 3.25205 7.02031 3.01703 7.02031 3.01703C6.96617 2.89399 6.83943 2.81893 6.70531 2.83ZM6.50843 3.50922C6.53181 3.5732 6.54781 3.6335 6.56749 3.70609C5.85751 3.87098 5.07986 4.14045 4.35265 4.59203C4.23822 4.64002 4.16316 4.75076 4.15947 4.87504C4.15701 4.99809 4.22714 5.11252 4.33788 5.16666C4.44986 5.21957 4.58275 5.20358 4.67749 5.12359C6.13683 4.2192 7.99361 4.09 8.62484 4.09C9.25607 4.09 11.1128 4.2192 12.5722 5.12359C12.6669 5.20358 12.7998 5.21957 12.9118 5.16666C13.0225 5.11252 13.0927 4.99809 13.0902 4.87504C13.0865 4.75076 13.0115 4.64002 12.897 4.59203C12.1698 4.14045 11.3922 3.87098 10.6822 3.70609C10.7019 3.6335 10.7179 3.5732 10.7412 3.50922C11.1005 3.55352 12.4971 3.74178 13.4483 4.4936C13.5098 4.5502 13.7239 4.8652 13.9208 5.30078C14.1177 5.73637 14.3244 6.30361 14.5212 6.95453C14.9052 8.22438 15.2152 9.79076 15.23 11.2267C14.8719 11.8063 14.2001 12.2369 13.5073 12.5064C12.8773 12.7513 12.2892 12.8608 11.9816 12.8903L11.45 12.1717C11.7207 12.0844 11.9643 11.9896 12.1784 11.8961C12.9733 11.5466 13.3991 11.1775 13.3991 11.1775C13.5295 11.0606 13.5406 10.86 13.4237 10.7296C13.3068 10.5992 13.1062 10.5881 12.9758 10.705C12.9758 10.705 12.646 11.0065 11.9225 11.3252C11.6567 11.4421 11.3343 11.5577 10.9677 11.6598C10.8827 11.65 10.7978 11.6746 10.7314 11.7288C10.1445 11.8715 9.44679 11.965 8.62484 11.965C7.79673 11.965 7.09783 11.8629 6.50843 11.7189C6.44199 11.6746 6.36077 11.6562 6.28203 11.6697C5.91411 11.5676 5.59419 11.4421 5.32718 11.3252C4.60367 11.0065 4.2739 10.705 4.2739 10.705C4.20253 10.6386 4.1041 10.6103 4.00812 10.6263C3.8863 10.6447 3.7854 10.7321 3.75218 10.8514C3.71773 10.9696 3.7571 11.0975 3.85062 11.1775C3.85062 11.1775 4.27636 11.5466 5.07124 11.8961C5.28535 11.9896 5.52898 12.0844 5.79968 12.1717L5.26812 12.8903C4.9605 12.8608 4.37234 12.7513 3.74234 12.5064C3.04958 12.2369 2.37775 11.8063 2.01968 11.2267C2.03445 9.79076 2.34453 8.22438 2.72843 6.95453C2.92531 6.30361 3.13203 5.73637 3.3289 5.30078C3.52578 4.8652 3.73988 4.5502 3.8014 4.4936C4.75255 3.74178 6.14913 3.55352 6.50843 3.50922ZM6.57734 7.24C5.77384 7.24 5.15984 7.96967 5.15984 8.815C5.15984 9.66033 5.77384 10.39 6.57734 10.39C7.38083 10.39 7.99484 9.66033 7.99484 8.815C7.99484 7.96967 7.38083 7.24 6.57734 7.24ZM10.6723 7.24C9.86884 7.24 9.25484 7.96967 9.25484 8.815C9.25484 9.66033 9.86884 10.39 10.6723 10.39C11.4758 10.39 12.0898 9.66033 12.0898 8.815C12.0898 7.96967 11.4758 7.24 10.6723 7.24ZM6.57734 7.87C6.99201 7.87 7.36484 8.26867 7.36484 8.815C7.36484 9.36133 6.99201 9.76 6.57734 9.76C6.16267 9.76 5.78984 9.36133 5.78984 8.815C5.78984 8.26867 6.16267 7.87 6.57734 7.87ZM10.6723 7.87C11.087 7.87 11.4598 8.26867 11.4598 8.815C11.4598 9.36133 11.087 9.76 10.6723 9.76C10.2577 9.76 9.88484 9.36133 9.88484 8.815C9.88484 8.26867 10.2577 7.87 10.6723 7.87Z" fill="#0D0B0A"/>
</svg>
