<svg width="15" height="14" viewBox="0 0 15 14" fill="none" xmlns="http://www.w3.org/2000/svg">
<path d="M13.3285 0.75091C13.179 0.757523 13.0334 0.799472 12.9021 0.852454C12.7722 0.905081 12.0242 1.22687 10.9197 1.70288C9.81508 2.17889 8.37922 2.79875 6.95588 3.4134C4.10919 4.64271 1.31184 5.85226 1.31184 5.85226L1.33222 5.8444C1.33222 5.8444 1.16339 5.90128 0.992215 6.0215C0.906628 6.0816 0.814549 6.1592 0.739157 6.27233C0.663764 6.38546 0.608647 6.5458 0.629418 6.71538C0.702375 7.31102 1.31483 7.47997 1.31483 7.47997L1.31723 7.48118L4.0505 8.42409C4.12019 8.65841 4.87951 11.2129 5.04654 11.7539C5.13879 12.053 5.22513 12.2255 5.31519 12.3432C5.36026 12.4021 5.40749 12.4477 5.45971 12.481C5.48046 12.4942 5.50228 12.5042 5.52388 12.513H5.52508C5.52773 12.5142 5.53023 12.5143 5.53287 12.5154L5.52568 12.5136C5.53069 12.5157 5.53565 12.5191 5.54067 12.5209C5.55041 12.5243 5.55638 12.5242 5.56885 12.5269C5.88188 12.6371 6.14093 12.4326 6.14093 12.4326L6.15173 12.4242L7.83079 10.8545L10.5557 12.996L10.5898 13.0117C11.0668 13.2251 11.4981 13.106 11.737 12.9101C11.9759 12.7142 12.0698 12.4616 12.0698 12.4616L12.08 12.435L14.0823 1.91624C14.1335 1.68091 14.1408 1.4775 14.0925 1.29368C14.0442 1.10987 13.9268 0.950085 13.7795 0.86152C13.6321 0.772955 13.478 0.744298 13.3285 0.75091ZM13.3447 1.38012C13.4054 1.37728 13.4504 1.38428 13.4646 1.39281C13.4788 1.40134 13.4852 1.40022 13.4988 1.45204C13.5124 1.50387 13.5198 1.61303 13.4826 1.78387L13.4814 1.7875L11.4905 12.2453C11.4858 12.2558 11.4443 12.3525 11.3496 12.4302C11.253 12.5095 11.1455 12.5713 10.8603 12.4508L7.88056 10.1086L7.7966 10.0421L7.79481 10.0439L6.9037 9.37001L11.9115 3.43154C11.95 3.38602 11.9746 3.33025 11.9823 3.27096C11.99 3.21167 11.9804 3.1514 11.9549 3.09743C11.9293 3.04347 11.8888 2.99813 11.8382 2.96689C11.7876 2.93565 11.7291 2.91985 11.6698 2.9214C11.6119 2.92292 11.5555 2.94094 11.5073 2.97338L4.26098 7.84263L1.52352 6.89791C1.52352 6.89791 1.25169 6.74544 1.23868 6.63922C1.23796 6.63333 1.23475 6.63866 1.24887 6.61746C1.263 6.59626 1.2985 6.56048 1.34302 6.52921C1.43205 6.46669 1.53371 6.42888 1.53371 6.42888L1.54391 6.42525L1.5541 6.42102C1.5541 6.42102 4.3516 5.21141 7.19814 3.98217C8.62141 3.36754 10.057 2.74814 11.1613 2.27225C12.2653 1.79648 13.0631 1.45403 13.1306 1.42666C13.2075 1.39562 13.284 1.38295 13.3447 1.38012ZM10.0238 4.71412L6.22608 9.2177L6.22429 9.21951C6.21836 9.2267 6.21275 9.23417 6.20749 9.24187C6.20147 9.25025 6.19587 9.25892 6.1907 9.26786C6.16937 9.30436 6.15569 9.34489 6.15053 9.38693C6.15052 9.38774 6.15052 9.38855 6.15053 9.38935L5.6558 11.6318C5.64758 11.6075 5.64182 11.5987 5.63302 11.5701V11.5695C5.47588 11.0606 4.75948 8.6515 4.66036 8.31831L10.0238 4.71412ZM6.65484 9.9557L7.33726 10.4719L6.33462 11.4087L6.65484 9.9557Z" fill="#0D0B0A"/>
</svg>
